<svg width="138" height="138" viewBox="0 0 138 138" fill="none" xmlns="http://www.w3.org/2000/svg">
<g id="Icon_Cat04">
<g id="cat03">
<mask id="path-1-outside-1_215_3032" maskUnits="userSpaceOnUse" x="13" y="22" width="112" height="95" fill="black">
<rect fill="white" x="13" y="22" width="112" height="95"/>
<path d="M119.148 61.2463C118.776 60.7603 118.308 60.3591 117.772 60.0709C109.793 55.8158 97.1038 61.0994 96.5565 61.0994C96.0092 61.0994 95.428 59.4041 92.6069 55.4484C89.7857 51.4928 94.8638 44.7116 95.9922 43.6832C97.1207 42.6547 98.8134 36.2352 95.9922 35.6701C93.1711 35.105 94.2996 32.8446 87.5288 31.1494C80.758 29.4541 77.9369 32.2796 77.6548 31.4545C77.3726 30.6295 75.1157 26.0635 74.5515 26.0635C73.9873 26.0635 72.8588 24.3682 69.4734 38.4956C67.6904 45.9379 69.3549 52.9112 71.3241 57.8444C71.3241 57.8444 70.8727 58.2626 70.0884 59.0142C65.5802 63.3598 50.0188 78.9168 44.6191 91.5298C42.7684 95.864 42.1139 99.848 43.5188 102.916C43.5188 102.916 37.0302 103.199 31.9521 103.199C26.874 103.199 26.5637 101.442 26.3098 100.939C25.7456 99.8084 26.3098 96.9829 29.6952 96.9829C34.7733 96.9829 35.0554 88.7891 30.5415 87.6589C26.0277 86.5287 17 91.0494 17 100.656C17 110.263 28.358 112.523 28.358 112.523H76.2442C80.1938 112.523 79.0653 109.132 79.0653 109.132C74.6756 99.7915 71.3523 101.136 72.2156 100.696C73.5189 100.357 74.8223 99.944 76.1144 99.4354C79.3192 98.1753 82.1968 96.4969 84.6681 94.5304C85.0631 103.482 90.4966 109.85 90.9142 110.263C91.4784 110.828 96.5565 115.349 102.199 111.393C107.841 107.437 101.635 103.482 97.6849 96.7004C93.7353 89.9192 97.6849 74.6617 98.2492 74.0966C98.8134 73.5315 107.277 70.1409 116.305 69.0107C123.606 68.0953 120.576 63.1168 119.148 61.2463Z"/>
</mask>
<path d="M119.148 61.2463C118.776 60.7603 118.308 60.3591 117.772 60.0709C109.793 55.8158 97.1038 61.0994 96.5565 61.0994C96.0092 61.0994 95.428 59.4041 92.6069 55.4484C89.7857 51.4928 94.8638 44.7116 95.9922 43.6832C97.1207 42.6547 98.8134 36.2352 95.9922 35.6701C93.1711 35.105 94.2996 32.8446 87.5288 31.1494C80.758 29.4541 77.9369 32.2796 77.6548 31.4545C77.3726 30.6295 75.1157 26.0635 74.5515 26.0635C73.9873 26.0635 72.8588 24.3682 69.4734 38.4956C67.6904 45.9379 69.3549 52.9112 71.3241 57.8444C71.3241 57.8444 70.8727 58.2626 70.0884 59.0142C65.5802 63.3598 50.0188 78.9168 44.6191 91.5298C42.7684 95.864 42.1139 99.848 43.5188 102.916C43.5188 102.916 37.0302 103.199 31.9521 103.199C26.874 103.199 26.5637 101.442 26.3098 100.939C25.7456 99.8084 26.3098 96.9829 29.6952 96.9829C34.7733 96.9829 35.0554 88.7891 30.5415 87.6589C26.0277 86.5287 17 91.0494 17 100.656C17 110.263 28.358 112.523 28.358 112.523H76.2442C80.1938 112.523 79.0653 109.132 79.0653 109.132C74.6756 99.7915 71.3523 101.136 72.2156 100.696C73.5189 100.357 74.8223 99.944 76.1144 99.4354C79.3192 98.1753 82.1968 96.4969 84.6681 94.5304C85.0631 103.482 90.4966 109.85 90.9142 110.263C91.4784 110.828 96.5565 115.349 102.199 111.393C107.841 107.437 101.635 103.482 97.6849 96.7004C93.7353 89.9192 97.6849 74.6617 98.2492 74.0966C98.8134 73.5315 107.277 70.1409 116.305 69.0107C123.606 68.0953 120.576 63.1168 119.148 61.2463Z" fill="#D5F4FB"/>
<path d="M119.148 61.2463C118.776 60.7603 118.308 60.3591 117.772 60.0709C109.793 55.8158 97.1038 61.0994 96.5565 61.0994C96.0092 61.0994 95.428 59.4041 92.6069 55.4484C89.7857 51.4928 94.8638 44.7116 95.9922 43.6832C97.1207 42.6547 98.8134 36.2352 95.9922 35.6701C93.1711 35.105 94.2996 32.8446 87.5288 31.1494C80.758 29.4541 77.9369 32.2796 77.6548 31.4545C77.3726 30.6295 75.1157 26.0635 74.5515 26.0635C73.9873 26.0635 72.8588 24.3682 69.4734 38.4956C67.6904 45.9379 69.3549 52.9112 71.3241 57.8444C71.3241 57.8444 70.8727 58.2626 70.0884 59.0142C65.5802 63.3598 50.0188 78.9168 44.6191 91.5298C42.7684 95.864 42.1139 99.848 43.5188 102.916C43.5188 102.916 37.0302 103.199 31.9521 103.199C26.874 103.199 26.5637 101.442 26.3098 100.939C25.7456 99.8084 26.3098 96.9829 29.6952 96.9829C34.7733 96.9829 35.0554 88.7891 30.5415 87.6589C26.0277 86.5287 17 91.0494 17 100.656C17 110.263 28.358 112.523 28.358 112.523H76.2442C80.1938 112.523 79.0653 109.132 79.0653 109.132C74.6756 99.7915 71.3523 101.136 72.2156 100.696C73.5189 100.357 74.8223 99.944 76.1144 99.4354C79.3192 98.1753 82.1968 96.4969 84.6681 94.5304C85.0631 103.482 90.4966 109.85 90.9142 110.263C91.4784 110.828 96.5565 115.349 102.199 111.393C107.841 107.437 101.635 103.482 97.6849 96.7004C93.7353 89.9192 97.6849 74.6617 98.2492 74.0966C98.8134 73.5315 107.277 70.1409 116.305 69.0107C123.606 68.0953 120.576 63.1168 119.148 61.2463Z" stroke="#001A80" stroke-width="8" mask="url(#path-1-outside-1_215_3032)"/>
</g>
</g>
</svg>
