<svg width="138" height="138" viewBox="0 0 138 138" fill="none" xmlns="http://www.w3.org/2000/svg">
<g id="Icon_Bird">
<g id="Bird">
<g id="Vector">
<mask id="path-1-outside-1_215_2957" maskUnits="userSpaceOnUse" x="27" y="13" width="50" height="80" fill="black">
<rect fill="white" x="27" y="13" width="50" height="80"/>
<path d="M72 88C71.6709 87.7183 71.3418 87.4365 71.0224 87.1645C70.6643 86.8633 70.3061 86.5621 69.9673 86.2707C69.0865 85.5129 68.2154 84.5025 67.4023 83.5601C64.9728 80.7135 61.5367 76.9245 61.1882 68.9773C60.8785 61.6713 63.7532 56.8525 67.5378 52.6652C68.2735 51.8491 69.0381 51.0621 69.8318 50.2849C70.0738 50.042 70.3158 49.8088 70.5578 49.566C70.6352 49.4979 70.703 49.4202 70.7804 49.3522C71.7096 47.3023 72.5808 43.6104 69.8318 39.4134C65.6407 33.0109 53.2125 31.5439 52.2736 17C52.2736 17 24.7844 29.8826 33.8248 61.545C33.8248 61.545 39.584 82.4039 66.8506 86.8924C68.1476 87.1062 72 88 72 88Z"/>
</mask>
<path d="M72 88C71.6709 87.7183 71.3418 87.4365 71.0224 87.1645C70.6643 86.8633 70.3061 86.5621 69.9673 86.2707C69.0865 85.5129 68.2154 84.5025 67.4023 83.5601C64.9728 80.7135 61.5367 76.9245 61.1882 68.9773C60.8785 61.6713 63.7532 56.8525 67.5378 52.6652C68.2735 51.8491 69.0381 51.0621 69.8318 50.2849C70.0738 50.042 70.3158 49.8088 70.5578 49.566C70.6352 49.4979 70.703 49.4202 70.7804 49.3522C71.7096 47.3023 72.5808 43.6104 69.8318 39.4134C65.6407 33.0109 53.2125 31.5439 52.2736 17C52.2736 17 24.7844 29.8826 33.8248 61.545C33.8248 61.545 39.584 82.4039 66.8506 86.8924C68.1476 87.1062 72 88 72 88Z" fill="#D3F2F9"/>
<path d="M72 88C71.6709 87.7183 71.3418 87.4365 71.0224 87.1645C70.6643 86.8633 70.3061 86.5621 69.9673 86.2707C69.0865 85.5129 68.2154 84.5025 67.4023 83.5601C64.9728 80.7135 61.5367 76.9245 61.1882 68.9773C60.8785 61.6713 63.7532 56.8525 67.5378 52.6652C68.2735 51.8491 69.0381 51.0621 69.8318 50.2849C70.0738 50.042 70.3158 49.8088 70.5578 49.566C70.6352 49.4979 70.703 49.4202 70.7804 49.3522C71.7096 47.3023 72.5808 43.6104 69.8318 39.4134C65.6407 33.0109 53.2125 31.5439 52.2736 17C52.2736 17 24.7844 29.8826 33.8248 61.545C33.8248 61.545 39.584 82.4039 66.8506 86.8924C68.1476 87.1062 72 88 72 88Z" stroke="#001A80" stroke-width="8" stroke-linejoin="round" mask="url(#path-1-outside-1_215_2957)"/>
</g>
<g id="Vector_2">
<mask id="path-2-outside-2_215_2957" maskUnits="userSpaceOnUse" x="47" y="31" width="31" height="61" fill="black">
<rect fill="white" x="47" y="31" width="31" height="61"/>
<path d="M68.5972 86.9177L74 88C73.6333 87.6953 73.2667 87.3906 72.9108 87.0963C72.5118 86.7706 72.1128 86.4449 71.7354 86.1296C70.754 85.31 69.7835 84.2172 68.8776 83.198C66.1708 80.1192 62.3425 76.0212 61.9543 67.4258C61.8249 64.3996 62.2131 61.7622 62.9788 59.4084C64.4562 54.8796 67.1522 51.8744 69.0286 49.7834C70.0207 48.68 70.9266 47.8079 71.5844 47.209C71.5197 46.6626 71.4442 46.1162 71.4011 45.5592C71.3471 44.8447 71.1854 40.3054 67.4002 37.3107C63.9385 34.5787 58.8701 34.2319 54.6212 36.4701C55.7427 37.111 56.4329 37.9727 56.8427 38.8973C57.1339 39.5488 57.2956 40.2423 57.3495 40.9148C57.3603 41.0409 57.3711 41.146 57.3711 41.2511C57.4466 42.9533 56.5623 45.2545 55.678 46.7361C49.488 57.1598 51.2242 64.9775 51.2242 64.9775C52.982 78.0702 66.2895 85.7303 68.2629 86.8021L68.5972 86.9177Z"/>
</mask>
<path d="M68.5972 86.9177L74 88C73.6333 87.6953 73.2667 87.3906 72.9108 87.0963C72.5118 86.7706 72.1128 86.4449 71.7354 86.1296C70.754 85.31 69.7835 84.2172 68.8776 83.198C66.1708 80.1192 62.3425 76.0212 61.9543 67.4258C61.8249 64.3996 62.2131 61.7622 62.9788 59.4084C64.4562 54.8796 67.1522 51.8744 69.0286 49.7834C70.0207 48.68 70.9266 47.8079 71.5844 47.209C71.5197 46.6626 71.4442 46.1162 71.4011 45.5592C71.3471 44.8447 71.1854 40.3054 67.4002 37.3107C63.9385 34.5787 58.8701 34.2319 54.6212 36.4701C55.7427 37.111 56.4329 37.9727 56.8427 38.8973C57.1339 39.5488 57.2956 40.2423 57.3495 40.9148C57.3603 41.0409 57.3711 41.146 57.3711 41.2511C57.4466 42.9533 56.5623 45.2545 55.678 46.7361C49.488 57.1598 51.2242 64.9775 51.2242 64.9775C52.982 78.0702 66.2895 85.7303 68.2629 86.8021L68.5972 86.9177Z" fill="white"/>
<path d="M68.5972 86.9177L74 88C73.6333 87.6953 73.2667 87.3906 72.9108 87.0963C72.5118 86.7706 72.1128 86.4449 71.7354 86.1296C70.754 85.31 69.7835 84.2172 68.8776 83.198C66.1708 80.1192 62.3425 76.0212 61.9543 67.4258C61.8249 64.3996 62.2131 61.7622 62.9788 59.4084C64.4562 54.8796 67.1522 51.8744 69.0286 49.7834C70.0207 48.68 70.9266 47.8079 71.5844 47.209C71.5197 46.6626 71.4442 46.1162 71.4011 45.5592C71.3471 44.8447 71.1854 40.3054 67.4002 37.3107C63.9385 34.5787 58.8701 34.2319 54.6212 36.4701C55.7427 37.111 56.4329 37.9727 56.8427 38.8973C57.1339 39.5488 57.2956 40.2423 57.3495 40.9148C57.3603 41.0409 57.3711 41.146 57.3711 41.2511C57.4466 42.9533 56.5623 45.2545 55.678 46.7361C49.488 57.1598 51.2242 64.9775 51.2242 64.9775C52.982 78.0702 66.2895 85.7303 68.2629 86.8021L68.5972 86.9177Z" stroke="#001A80" stroke-width="7" stroke-linejoin="round" mask="url(#path-2-outside-2_215_2957)"/>
</g>
<g id="Vector_3">
<mask id="path-3-outside-3_215_2957" maskUnits="userSpaceOnUse" x="60" y="13" width="50" height="113" fill="black">
<rect fill="white" x="60" y="13" width="50" height="113"/>
<path d="M98.369 97.6772C102.446 114.935 96.7403 121 96.7403 121C94.7225 105.472 86.948 99.3968 86.313 98.5525C85.3501 97.2551 80.1979 93.1465 75.4656 89.1616C75.1174 88.863 74.7691 88.5644 74.4311 88.276C74.0521 87.9568 73.6731 87.6376 73.3146 87.3287C72.3825 86.5256 71.4606 85.4547 70.6002 84.4558C68.0292 81.4388 64.3929 77.423 64.0242 69C63.6964 61.2566 66.7386 56.1493 70.7436 51.7113C71.5221 50.8463 72.3313 50.0123 73.1712 49.1885C73.4273 48.9311 73.6833 48.684 73.9394 48.4265C74.0214 48.3545 74.0931 48.2721 74.175 48.2C78.0776 44.4004 82.226 40.7141 84.8277 35.6994C89.9902 25.7731 87.0607 17 87.0607 17C87.0607 17 106 27.0911 106 50.105C106 69.0412 92.9812 79.3176 84.3975 84.0337C96.4126 87.4317 98.369 97.6772 98.369 97.6772Z"/>
</mask>
<path d="M98.369 97.6772C102.446 114.935 96.7403 121 96.7403 121C94.7225 105.472 86.948 99.3968 86.313 98.5525C85.3501 97.2551 80.1979 93.1465 75.4656 89.1616C75.1174 88.863 74.7691 88.5644 74.4311 88.276C74.0521 87.9568 73.6731 87.6376 73.3146 87.3287C72.3825 86.5256 71.4606 85.4547 70.6002 84.4558C68.0292 81.4388 64.3929 77.423 64.0242 69C63.6964 61.2566 66.7386 56.1493 70.7436 51.7113C71.5221 50.8463 72.3313 50.0123 73.1712 49.1885C73.4273 48.9311 73.6833 48.684 73.9394 48.4265C74.0214 48.3545 74.0931 48.2721 74.175 48.2C78.0776 44.4004 82.226 40.7141 84.8277 35.6994C89.9902 25.7731 87.0607 17 87.0607 17C87.0607 17 106 27.0911 106 50.105C106 69.0412 92.9812 79.3176 84.3975 84.0337C96.4126 87.4317 98.369 97.6772 98.369 97.6772Z" fill="#D3F2F9"/>
<path d="M98.369 97.6772C102.446 114.935 96.7403 121 96.7403 121C94.7225 105.472 86.948 99.3968 86.313 98.5525C85.3501 97.2551 80.1979 93.1465 75.4656 89.1616C75.1174 88.863 74.7691 88.5644 74.4311 88.276C74.0521 87.9568 73.6731 87.6376 73.3146 87.3287C72.3825 86.5256 71.4606 85.4547 70.6002 84.4558C68.0292 81.4388 64.3929 77.423 64.0242 69C63.6964 61.2566 66.7386 56.1493 70.7436 51.7113C71.5221 50.8463 72.3313 50.0123 73.1712 49.1885C73.4273 48.9311 73.6833 48.684 73.9394 48.4265C74.0214 48.3545 74.0931 48.2721 74.175 48.2C78.0776 44.4004 82.226 40.7141 84.8277 35.6994C89.9902 25.7731 87.0607 17 87.0607 17C87.0607 17 106 27.0911 106 50.105C106 69.0412 92.9812 79.3176 84.3975 84.0337C96.4126 87.4317 98.369 97.6772 98.369 97.6772Z" stroke="#001A80" stroke-width="8" stroke-linejoin="round" mask="url(#path-3-outside-3_215_2957)"/>
</g>
</g>
</g>
</svg>
