<svg width="138" height="138" viewBox="0 0 138 138" fill="none" xmlns="http://www.w3.org/2000/svg">
<path d="M81.5628 42.6945C81.3679 41.7593 81.9246 40.8333 82.8339 40.5463C86.0906 39.5462 87.9834 37.9073 89.0875 36.1109C90.2195 34.2683 90.637 32.0923 90.637 29.907C90.637 27.7218 90.2195 25.6291 89.7927 24.0642C89.5793 23.2864 89.3659 22.6568 89.2081 22.2216C89.1339 21.9993 89.069 21.8327 89.0226 21.7216C89.004 21.666 88.9854 21.629 88.9762 21.6104V21.5827C88.6514 20.8512 88.837 20.0085 89.4215 19.4807C90.0153 18.9437 90.8782 18.8511 91.5741 19.2307L91.5927 19.24L91.6391 19.2678C91.6391 19.2678 91.7318 19.3233 91.8061 19.3696C91.9452 19.453 92.1494 19.5733 92.4092 19.7308C92.9195 20.0456 93.6432 20.5086 94.5153 21.1197C96.2411 22.3327 98.5514 24.1105 100.862 26.4162C105.445 30.9811 110.289 37.7962 110.289 46.3428C110.289 48.7965 109.797 51.0281 108.952 53.0467C108.693 53.6671 108.117 54.1023 107.44 54.1763C106.763 54.2504 106.104 53.9449 105.724 53.3893C101.994 48.0373 96.538 45.7038 91.8617 44.7316C89.5421 44.2408 87.4452 44.1019 85.9329 44.0834C85.1813 44.0742 84.5782 44.0834 84.17 44.1205C83.9751 44.1297 83.8174 44.139 83.7153 44.1482C83.669 44.1482 83.6318 44.1575 83.604 44.1575H83.5854C82.6298 44.2686 81.7576 43.6297 81.5628 42.6945Z" fill="#D5F4FB"/>
<path d="M114 73.9916C114 75.1305 113.963 76.3065 113.889 77.5287C112.775 95.5941 102.504 108.039 89.2639 114.298C76.0887 120.521 59.9443 120.651 46.8804 114.187C43.7443 112.641 41.0165 110.826 38.6598 108.817C27.5629 99.4368 24.7608 86.279 24.1577 78.1861C24.0278 76.575 24 75.1583 24 73.9916C24.0093 70.9822 26.5144 68.8432 29.3165 68.8432H80.8113C83.8825 68.8432 86.9258 68.4173 89.8299 67.5839C92.734 66.7413 95.5082 65.482 98.0412 63.8246C101.298 61.6856 104.211 58.8892 105.677 55.3335C105.937 54.7039 106.522 54.2687 107.199 54.1946C107.876 54.1205 108.535 54.4261 108.915 54.9817C112.014 59.454 114 65.6117 114 73.9916Z" fill="#D5F4FB"/>
<path d="M70 70.8636V78.4949C70 95.4161 56.9408 109.253 40.5296 109.999C40.0612 110.017 39.602 109.859 39.2531 109.551C28.352 100.019 25.5969 86.6666 25.0092 78.4669C25 78.4203 25 78.3738 25 78.3272V74.5907C25 71.5065 27.4704 69 30.5102 69H68.1633C69.1735 69 70 69.8386 70 70.8636Z" fill="white"/>
<path d="M81.5628 42.6945C81.3679 41.7593 81.9246 40.8333 82.8339 40.5463C86.0906 39.5462 87.9834 37.9073 89.0875 36.1109C90.2195 34.2683 90.637 32.0923 90.637 29.907C90.637 27.7218 90.2195 25.6291 89.7927 24.0642C89.5793 23.2864 89.3659 22.6568 89.2081 22.2216C89.1339 21.9993 89.069 21.8327 89.0226 21.7216C89.004 21.666 88.9854 21.629 88.9762 21.6104V21.5827C88.6514 20.8512 88.837 20.0085 89.4215 19.4807C90.0153 18.9437 90.8782 18.8511 91.5741 19.2307L91.5927 19.24L91.6391 19.2678C91.6391 19.2678 91.7318 19.3233 91.8061 19.3696C91.9452 19.453 92.1494 19.5733 92.4092 19.7308C92.9195 20.0456 93.6432 20.5086 94.5153 21.1197C96.2411 22.3327 98.5514 24.1105 100.862 26.4162C105.445 30.9811 110.289 37.7962 110.289 46.3428C110.289 48.7965 109.797 51.0281 108.952 53.0467C108.693 53.6671 108.117 54.1023 107.44 54.1763C106.763 54.2504 106.104 53.9449 105.724 53.3893C101.994 48.0373 96.538 45.7038 91.8617 44.7316C89.5421 44.2408 87.4452 44.1019 85.9329 44.0834C85.1813 44.0742 84.5782 44.0834 84.17 44.1205C83.9751 44.1297 83.8174 44.139 83.7153 44.1482C83.669 44.1482 83.6318 44.1575 83.604 44.1575H83.5854C82.6298 44.2686 81.7576 43.6297 81.5628 42.6945Z" stroke="#001A80" stroke-width="4" stroke-linejoin="round"/>
<path d="M114 73.9916C114 75.1305 113.963 76.3065 113.889 77.5287C112.775 95.5941 102.504 108.039 89.2639 114.298C76.0887 120.521 59.9443 120.651 46.8804 114.187C43.7443 112.641 41.0165 110.826 38.6598 108.817C27.5629 99.4368 24.7608 86.279 24.1577 78.1861C24.0278 76.575 24 75.1583 24 73.9916C24.0093 70.9822 26.5144 68.8432 29.3165 68.8432H80.8113C83.8825 68.8432 86.9258 68.4173 89.8299 67.5839C92.734 66.7413 95.5082 65.482 98.0412 63.8246C101.298 61.6856 104.211 58.8892 105.677 55.3335C105.937 54.7039 106.522 54.2687 107.199 54.1946C107.876 54.1205 108.535 54.4261 108.915 54.9817C112.014 59.454 114 65.6117 114 73.9916Z" stroke="#001A80" stroke-width="4" stroke-linejoin="round"/>
<path d="M70 70.8636V78.4949C70 95.4161 56.9408 109.253 40.5296 109.999C40.0612 110.017 39.602 109.859 39.2531 109.551C28.352 100.019 25.5969 86.6666 25.0092 78.4669C25 78.4203 25 78.3738 25 78.3272V74.5907C25 71.5065 27.4704 69 30.5102 69H68.1633C69.1735 69 70 69.8386 70 70.8636Z" stroke="#001A80" stroke-width="4" stroke-linejoin="round"/>
</svg>
