<svg width="138" height="138" viewBox="0 0 138 138" fill="none" xmlns="http://www.w3.org/2000/svg">
<g id="Icon_Dog">
<g id="Dog">
<path id="Vector" d="M112.474 21.266C112.099 22.0968 111.597 22.8678 111.169 23.2932C109.831 24.6226 87.0845 43.898 86.4155 44.5627C85.7465 45.2274 89.0916 73.8083 89.7606 78.461C90.4296 83.1137 96.7183 121 96.7183 121H25C25 121 56.6444 70.1526 60.6585 66.8292L59.3673 32.8445C59.3405 32.2131 58.7652 31.7345 58.1363 31.8342C56.8518 32.0469 54.8447 32.233 53.8412 31.6016C53.4064 31.3291 52.8578 31.3092 52.4564 31.6282C50.9645 32.818 47.7197 35.2174 44.6958 36.2676C44.2007 36.4404 43.719 35.9884 43.8394 35.4833C44.6155 32.2663 47.3049 22.7681 53.2057 17.5371C53.8412 16.9722 54.7511 16.8459 55.5271 17.1915C58.8655 18.687 67.9641 22.7482 69.3423 23.2866C71.0282 23.9512 77.7183 18.6339 82.4014 19.2985C87.0845 19.9632 89.7606 25.2806 90.4296 25.2806C90.9849 25.2806 102.739 20.6478 108.547 18.7336C109.697 18.3547 110.614 18.0822 111.169 17.9692C113.437 17.5172 113.243 19.5112 112.474 21.2593V21.266Z" fill="#D3F2F9"/>
<path id="Vector (Stroke)" fill-rule="evenodd" clip-rule="evenodd" d="M116.201 22.7163C116.176 22.7815 116.149 22.8462 116.12 22.9102C115.625 24.0087 114.878 25.2468 113.988 26.1308C113.177 26.9369 106.951 32.2578 101.138 37.2195C100.117 38.0914 99.0984 38.9602 98.1107 39.803C96.225 41.412 94.4504 42.9261 92.9764 44.1862C91.9247 45.0852 91.0303 45.8513 90.3605 46.4279C90.3961 47.1405 90.4597 48.0626 90.5487 49.1632C90.7744 51.9565 91.1464 55.6961 91.5634 59.5904C92.3989 67.3931 93.3961 75.6411 93.7197 77.8916C94.0466 80.1652 95.7758 90.7393 97.437 100.825C98.2647 105.85 99.0715 110.73 99.6714 114.354C99.9713 116.166 100.22 117.664 100.393 118.709L100.664 120.345C100.664 120.345 100.664 120.345 96.7182 121C96.7182 121 96.4651 119.475 96.055 117C94.4211 107.137 90.2952 82.1802 89.7604 78.4609C89.0914 73.8082 85.7463 45.2273 86.4153 44.5626C86.6925 44.2873 90.7575 40.8189 95.52 36.7553C102.255 31.0086 110.385 24.0718 111.169 23.2931C111.597 22.8677 112.099 22.0967 112.473 21.2659V21.2592C113.243 19.5112 113.437 17.5171 111.169 17.9691C110.614 18.0821 109.697 18.3546 108.546 18.7335C105.482 19.7438 100.76 21.5113 96.9026 22.9554C93.4512 24.2474 90.6916 25.2805 90.4294 25.2805C90.2376 25.2805 89.8808 24.8434 89.359 24.2041C88.0609 22.6138 85.7416 19.7726 82.4013 19.2985C79.6639 18.9099 76.2407 20.5653 73.5321 21.8752C71.6068 22.8062 70.0425 23.5626 69.3421 23.2865C67.9639 22.7481 58.8653 18.687 55.5269 17.1914C54.7509 16.8458 53.841 16.9721 53.2055 17.5371C48.8499 21.3983 46.244 27.5846 44.8658 31.8535C44.817 32.0045 44.7698 32.1531 44.7241 32.2992C44.4634 33.1321 44.2519 33.8808 44.0854 34.5105C44.085 34.5122 44.0845 34.5139 44.0841 34.5156C43.9876 34.8805 43.9063 35.2053 43.8393 35.4832C43.7188 35.9884 44.2005 36.4403 44.6956 36.2675C45.0004 36.1617 45.3074 36.0421 45.6146 35.9115C45.6172 35.9104 45.6197 35.9093 45.6222 35.9083C46.3305 35.6067 47.0399 35.2463 47.7256 34.8592C47.8909 34.7659 48.0548 34.6711 48.2169 34.5751C49.9836 33.5299 51.546 32.3539 52.4562 31.6281C52.8576 31.3091 53.4062 31.329 53.841 31.6015C54.8445 32.233 56.8516 32.0469 58.1361 31.8342C58.765 31.7345 59.3403 32.213 59.3671 32.8445L60.6583 66.8292C57.3335 69.5818 35.053 104.938 27.499 117C25.9329 119.501 24.9998 121 24.9998 121C21.6038 118.886 21.6039 118.886 21.6042 118.886L21.9621 118.311C22.1955 117.937 22.5381 117.388 22.9755 116.688C23.8501 115.289 25.1038 113.287 26.6205 110.874C29.6536 106.05 33.7412 99.5792 37.956 93.0025C42.1677 86.4306 46.5196 79.7319 50.0772 74.4584C51.8537 71.825 53.4516 69.5181 54.7449 67.7497C55.3901 66.8675 55.9815 66.089 56.4956 65.4583C56.5293 65.4169 56.5636 65.375 56.5985 65.3326L55.4851 36.0265C54.9703 36.0079 54.3147 35.9499 53.6171 35.778C51.7638 37.1455 48.8914 39.0447 46.0079 40.0462C42.4104 41.297 39.1246 38.0109 39.9483 34.5557L39.9508 34.5452C40.3707 32.8046 41.303 29.3795 42.9384 25.6566C44.5511 21.9852 46.9829 17.7087 50.55 14.5457C52.4009 12.9018 54.9956 12.5761 57.1543 13.5375L57.1623 13.541C60.1087 14.8609 67.1641 18.0094 69.8668 19.1706C69.8722 19.1683 69.8777 19.166 69.8833 19.1637C70.4126 18.9408 70.9665 18.6726 71.657 18.3382C72.0639 18.1412 72.5182 17.9212 73.0428 17.674C74.3216 17.0715 75.866 16.3866 77.47 15.9042C79.0424 15.4312 80.9765 15.0562 82.9633 15.3381C86.6583 15.8626 89.2841 18.1617 90.8245 19.7878C91.1056 20.0845 91.3696 20.3801 91.6097 20.6581C92.6783 20.2657 94.0177 19.7643 95.5015 19.2088C95.7039 19.133 95.909 19.0563 96.1164 18.9786C99.824 17.591 104.298 15.9221 107.294 14.9346L107.295 14.9341C108.437 14.5584 109.558 14.215 110.371 14.0494L110.387 14.0463C111.406 13.8432 112.865 13.7579 114.289 14.5006C115.878 15.3304 116.621 16.7597 116.875 17.9665C117.104 19.0581 116.976 20.0728 116.825 20.7798C116.677 21.4726 116.449 22.1329 116.201 22.7163ZM70.8092 19.5652L70.7976 19.5607C70.8014 19.5622 70.8053 19.5637 70.8092 19.5652ZM24.9998 121L21.6042 118.886C20.8366 120.119 20.7976 121.672 21.5031 122.942C22.2085 124.212 23.5471 125 24.9998 125H96.7182C97.8935 125 99.0094 124.483 99.7694 123.586C100.529 122.69 100.857 121.504 100.664 120.345L96.7182 121H24.9998Z" fill="#001A80"/>
<path id="Vector_2" d="M113.173 21C109.976 20.7702 107.452 19.5419 107 17.9887C108.809 17.537 110.249 17.2121 111.122 17.0774C114.687 16.5386 114.382 18.9159 113.173 21Z" fill="#001A80"/>
<path id="Vector_3" d="M59.8918 55.4722L58.4441 55.5769L58.5012 57.0273L58.8958 67.059L58.9632 68.7712L60.6514 68.4779L88.2568 63.6818L89.6419 63.4412L89.4914 62.0434L88.7157 54.8394L88.5606 53.3995L87.1161 53.5039L59.8918 55.4722Z" fill="white" stroke="#001A80" stroke-width="3"/>
<path id="Vector_4" d="M85 100L88 120" stroke="#001A80" stroke-width="3" stroke-miterlimit="10" stroke-linecap="round"/>
<path id="Vector_5" d="M73 98L78 121" stroke="#001A80" stroke-width="3" stroke-miterlimit="10" stroke-linecap="round"/>
<path id="Vector_6" d="M82 70C84.2091 70 86 68.2091 86 66C86 63.7909 84.2091 62 82 62C79.7909 62 78 63.7909 78 66C78 68.2091 79.7909 70 82 70Z" fill="#001A80"/>
<path id="Vector 203" d="M52 33.5C52.5 32.5 53.7 30 54.5 28" stroke="#001A80" stroke-width="2" stroke-linecap="round"/>
</g>
</g>
</svg>
