<svg width="181" height="181" viewBox="0 0 181 181" fill="none" xmlns="http://www.w3.org/2000/svg">
<circle cx="90.9121" cy="90.8379" r="90" fill="#FFC303"/>
<path d="M124.1 66.0879H110.037V63.2754C110.037 61.0376 109.148 58.8915 107.566 57.3092C105.983 55.7268 103.837 54.8379 101.6 54.8379H84.7246C82.4868 54.8379 80.3407 55.7268 78.7584 57.3092C77.1761 58.8915 76.2871 61.0376 76.2871 63.2754V66.0879H62.2246C61.4787 66.0879 60.7633 66.3842 60.2359 66.9117C59.7084 67.4391 59.4121 68.1545 59.4121 68.9004C59.4121 69.6463 59.7084 70.3617 60.2359 70.8891C60.7633 71.4166 61.4787 71.7129 62.2246 71.7129H65.0371V122.338C65.0371 123.83 65.6297 125.26 66.6846 126.315C67.7395 127.37 69.1703 127.963 70.6621 127.963H115.662C117.154 127.963 118.585 127.37 119.64 126.315C120.694 125.26 121.287 123.83 121.287 122.338V71.7129H124.1C124.846 71.7129 125.561 71.4166 126.088 70.8891C126.616 70.3617 126.912 69.6463 126.912 68.9004C126.912 68.1545 126.616 67.4391 126.088 66.9117C125.561 66.3842 124.846 66.0879 124.1 66.0879ZM81.9121 63.2754C81.9121 62.5295 82.2084 61.8141 82.7359 61.2867C83.2633 60.7592 83.9787 60.4629 84.7246 60.4629H101.6C102.346 60.4629 103.061 60.7592 103.588 61.2867C104.116 61.8141 104.412 62.5295 104.412 63.2754V66.0879H81.9121V63.2754ZM115.662 122.338H70.6621V71.7129H115.662V122.338ZM87.5371 85.7754V108.275C87.5371 109.021 87.2408 109.737 86.7133 110.264C86.1859 110.792 85.4705 111.088 84.7246 111.088C83.9787 111.088 83.2633 110.792 82.7359 110.264C82.2084 109.737 81.9121 109.021 81.9121 108.275V85.7754C81.9121 85.0295 82.2084 84.3141 82.7359 83.7867C83.2633 83.2592 83.9787 82.9629 84.7246 82.9629C85.4705 82.9629 86.1859 83.2592 86.7133 83.7867C87.2408 84.3141 87.5371 85.0295 87.5371 85.7754ZM104.412 85.7754V108.275C104.412 109.021 104.116 109.737 103.588 110.264C103.061 110.792 102.346 111.088 101.6 111.088C100.854 111.088 100.138 110.792 99.6109 110.264C99.0834 109.737 98.7871 109.021 98.7871 108.275V85.7754C98.7871 85.0295 99.0834 84.3141 99.6109 83.7867C100.138 83.2592 100.854 82.9629 101.6 82.9629C102.346 82.9629 103.061 83.2592 103.588 83.7867C104.116 84.3141 104.412 85.0295 104.412 85.7754Z" fill="black"/>
</svg>
