<svg width="120" height="120" viewBox="0 0 120 120" fill="none" xmlns="http://www.w3.org/2000/svg">
<circle cx="60" cy="60" r="60" fill="#FFC303"/>
<path d="M16 78.0824C16 78.0824 20.1124 79.0565 21.0298 78.6669C22.0747 78.2232 24.3824 77.2432 24.3824 77.2432L62.1199 119.709L58.6166 120.001L16 78.0824Z" fill="#626231"/>
<path d="M90.8735 110.98C90.8735 110.98 75.7181 116.247 61.3341 97.8549C59.2758 95.3288 55.1571 85.1056 55.0884 84.5515C54.1091 76.6593 56.5876 68.9004 56.5876 68.9004L71.9886 69.1009C71.9886 69.1009 85.4964 75.4423 90.2249 95.6529C93.3179 104.845 90.8735 110.98 90.8735 110.98V110.98Z" fill="#090B12" stroke="black" stroke-miterlimit="10"/>
<path d="M40.3955 93.5439C40.3955 93.5439 31.5474 78.4161 31.5474 78.2223C31.5474 77.8847 27.9764 66.1917 33.1964 65.2096C38.7364 64.1674 50.0053 65.7194 59.3352 71.5701C68.665 77.4208 52.6357 81.2574 67.2591 101.782C74.5003 111.946 40.3955 93.5439 40.3955 93.5439V93.5439Z" fill="#EDD788" stroke="black" stroke-width="0.5" stroke-miterlimit="10"/>
<path d="M40.6571 93.1661C40.6571 93.1661 33.1934 85.1286 31.268 77.849C29.7144 71.9752 28.836 65.086 33.5165 64.0641C38.1969 63.0422 48.8417 64.5639 56.7239 70.3003C64.606 76.0366 51.0639 79.7982 63.4183 99.922C69.5359 109.887 40.6572 93.1662 40.6572 93.1662L40.6571 93.1661Z" fill="white" stroke="black" stroke-miterlimit="10"/>
<path d="M92.3517 38.9414C92.3517 57.1167 77.4546 71.8507 59.0782 71.8507C40.7017 71.8507 25.8047 57.1167 25.8047 38.9414C25.8047 20.7661 56.9007 7 75.2771 7C84.0192 7 64.8297 15.174 70.7676 20.6272C77.3117 26.6369 92.3517 29.4124 92.3517 38.9414V38.9414Z" fill="#090B12" stroke="black" stroke-miterlimit="10"/>
<path d="M67.6002 41.6502C67.6002 54.9426 57.9099 65.7182 45.9564 65.7182C34.0028 65.7182 24.3125 54.9426 24.3125 41.6502C24.3125 28.3578 44.5399 18.29 56.4935 18.29C62.18 18.29 49.6976 24.2681 53.5601 28.2562C57.817 32.6514 67.6002 34.6812 67.6002 41.6502V41.6502Z" fill="white" stroke="black" stroke-miterlimit="10"/>
<path d="M37.056 33.0877C37.056 35.1149 35.7401 36.7584 34.1169 36.7584C32.4936 36.7584 31.1777 35.1149 31.1777 33.0877C31.1777 31.0604 32.4936 29.417 34.1169 29.417C35.7401 29.417 37.056 31.0604 37.056 33.0877Z" fill="black" stroke="black" stroke-width="0.5" stroke-miterlimit="10"/>
<path d="M48.8372 38.8816C48.8372 40.9089 47.5214 42.5524 45.8981 42.5524C44.2749 42.5524 42.959 40.9089 42.959 38.8816C42.959 36.8544 44.2749 35.2109 45.8981 35.2109C47.5213 35.2109 48.8372 36.8544 48.8372 38.8816Z" fill="black" stroke="black" stroke-width="0.5" stroke-miterlimit="10"/>
<path d="M30.4358 84.4059C31.527 83.0113 35.3076 82.0752 35.3076 82.0752L36.1869 83.0522C36.1869 83.0522 32.9912 84.9264 32.2025 86.3152C31.5041 87.5451 31.888 92.4318 31.888 92.4318C31.888 92.4318 26.52 89.4099 30.4358 84.4059V84.4059Z" fill="#B4ABA8" stroke="black" stroke-width="0.5" stroke-miterlimit="10"/>
<path d="M33.8577 87.8268C34.9489 86.4323 38.7294 85.4961 38.7294 85.4961L39.6088 86.4732C39.6088 86.4732 36.413 88.3473 35.6244 89.7361C35.3602 90.2011 35.3098 95.8527 35.3098 95.8527C35.3098 95.8527 29.9419 92.8308 33.8577 87.8268V87.8268Z" fill="#B4ABA8" stroke="black" stroke-width="0.5" stroke-miterlimit="10"/>
<path d="M42.0026 92.4966C43.2552 90.8959 47.5947 89.8213 47.5947 89.8213L48.604 90.9427C48.604 90.9427 44.9358 93.094 44.0305 94.6881C43.2288 96.0997 43.6695 101.709 43.6695 101.709C43.6695 101.709 37.508 98.2403 42.0026 92.4965V92.4966Z" fill="#B4ABA8" stroke="black" stroke-width="0.5" stroke-miterlimit="10"/>
<path d="M45.9285 96.4223C47.181 94.8216 51.5205 93.7471 51.5205 93.7471L52.5298 94.8685C52.5298 94.8685 48.8616 97.0198 47.9563 98.6138C47.6532 99.1476 47.5953 105.635 47.5953 105.635C47.5953 105.635 41.4338 102.166 45.9284 96.4223H45.9285Z" fill="#B4ABA8" stroke="black" stroke-width="0.5" stroke-miterlimit="10"/>
<path d="M17.5508 41.8936C17.5508 41.8936 26.5895 36.4122 30.5963 37.2259C42.4487 38.0625 41.9391 46.8463 41.9391 46.8463C41.9391 46.8463 38.8522 58.3169 27.5281 54.8803C19.818 51.4779 17.5508 41.8936 17.5508 41.8936Z" fill="#EDD788" stroke="black" stroke-width="0.5" stroke-miterlimit="10"/>
</svg>
