<svg width="133" height="133" viewBox="0 0 133 133" fill="none" xmlns="http://www.w3.org/2000/svg">
<circle cx="66.5" cy="66.5" r="66.5" fill="#F5F5F5"/>
<path d="M48.24 87.9973C49.5067 87.9973 50.5667 88.1173 51.42 88.3573C52.2867 88.584 52.9333 88.964 53.36 89.4973C53.8 90.0173 54.02 90.724 54.02 91.6173C54.02 92.1507 53.9333 92.6373 53.76 93.0773C53.5867 93.5173 53.3333 93.8773 53 94.1573C52.68 94.4373 52.2867 94.6173 51.82 94.6973V94.7973C52.3 94.8907 52.7333 95.0573 53.12 95.2973C53.5067 95.5373 53.8133 95.884 54.04 96.3373C54.2667 96.7907 54.38 97.3907 54.38 98.1373C54.38 99.004 54.1667 99.7507 53.74 100.377C53.3267 100.991 52.7267 101.464 51.94 101.797C51.1533 102.117 50.22 102.277 49.14 102.277H43.8V87.9973H48.24ZM48.58 93.6573C49.46 93.6573 50.0667 93.5173 50.4 93.2373C50.7467 92.9573 50.92 92.5507 50.92 92.0173C50.92 91.4707 50.72 91.0773 50.32 90.8373C49.92 90.5973 49.2867 90.4773 48.42 90.4773H46.82V93.6573H48.58ZM46.82 96.0573V99.7773H48.8C49.7067 99.7773 50.34 99.604 50.7 99.2573C51.06 98.8973 51.24 98.424 51.24 97.8373C51.24 97.4773 51.16 97.164 51 96.8973C50.8533 96.6307 50.5933 96.424 50.22 96.2773C49.8467 96.1307 49.34 96.0573 48.7 96.0573H46.82ZM62.5775 102.277H56.0775V100.557L57.8175 99.7573V90.5173L56.0775 89.7173V87.9973H62.5775V89.7173L60.8375 90.5173V99.7573L62.5775 100.557V102.277ZM69.1709 87.9973C70.4643 87.9973 71.5309 88.1573 72.3709 88.4773C73.2109 88.784 73.8376 89.2573 74.2509 89.8973C74.6643 90.524 74.8709 91.3173 74.8709 92.2773C74.8709 92.9307 74.7443 93.504 74.4909 93.9973C74.2509 94.4773 73.9243 94.8907 73.5109 95.2373C73.1109 95.5707 72.6776 95.844 72.2109 96.0573L76.4109 102.277H73.0509L69.6509 96.7973H68.0309V102.277H65.0109V87.9973H69.1709ZM68.9509 90.4773H68.0309V94.3373H69.0109C69.6776 94.3373 70.2176 94.264 70.6309 94.1173C71.0443 93.9707 71.3443 93.7507 71.5309 93.4573C71.7176 93.1507 71.8109 92.784 71.8109 92.3573C71.8109 91.904 71.7043 91.544 71.4909 91.2773C71.2909 90.9973 70.9776 90.7973 70.5509 90.6773C70.1376 90.544 69.6043 90.4773 68.9509 90.4773ZM90.0541 94.9973C90.0541 96.5973 89.7474 97.9373 89.1341 99.0173C88.5207 100.097 87.6274 100.911 86.4541 101.457C85.2941 102.004 83.8941 102.277 82.2541 102.277H78.2141V87.9973H82.6941C84.1874 87.9973 85.4807 88.264 86.5741 88.7973C87.6807 89.3307 88.5341 90.1173 89.1341 91.1573C89.7474 92.184 90.0541 93.464 90.0541 94.9973ZM86.9141 95.0773C86.9141 94.024 86.7607 93.1573 86.4541 92.4773C86.1474 91.7973 85.6874 91.2973 85.0741 90.9773C84.4741 90.644 83.7341 90.4773 82.8541 90.4773H81.2341V99.7773H82.5341C84.0141 99.7773 85.1141 99.384 85.8341 98.5973C86.5541 97.8107 86.9141 96.6373 86.9141 95.0773Z" fill="black"/>
<path fill-rule="evenodd" clip-rule="evenodd" d="M72.2504 33.3145C74.199 33.3142 76.1085 33.8909 77.762 34.979C79.4156 36.0671 80.7469 37.6229 81.6046 39.4697L81.8004 39.9117H84.7504C85.1034 39.9117 85.4505 40.0063 85.7593 40.1867C86.0681 40.367 86.3284 40.6273 86.5158 40.9429C86.7032 41.2586 86.8116 41.6193 86.8308 41.9913C86.85 42.3633 86.7793 42.7343 86.6254 43.0695L86.4838 43.3312L83.2504 48.4485C83.0025 48.8419 82.8812 49.3092 82.9046 49.7811L82.9338 50.0626L83.2275 51.7647C85.2879 63.7232 76.7525 74.7472 65.3254 75.0881L64.7796 75.0969H47.2504C46.8975 75.0969 46.5504 75.0023 46.2416 74.8219C45.9328 74.6415 45.6725 74.3813 45.485 74.0656C45.2976 73.75 45.1892 73.3892 45.1701 73.0172C45.1509 72.6453 45.2216 72.2742 45.3754 71.939L45.5171 71.6773L61.0275 47.118C61.5533 46.2866 61.8338 45.3094 61.8338 44.3098C61.8338 41.3937 62.9312 38.597 64.8847 36.5349C66.8382 34.4729 69.4878 33.3145 72.2504 33.3145ZM64.9588 53.1061C64.3942 53.1061 63.5775 53.2601 62.8004 53.5657C62.0192 53.8736 61.5879 54.2145 61.4379 54.397L54.3879 65.5617C56.4671 64.9305 58.69 64.2356 60.7692 63.3758C62.9921 62.4588 64.89 61.4142 66.2046 60.1959C67.4796 59.015 68.0838 57.7945 68.0838 56.4047C68.0838 55.5299 67.7545 54.6909 67.1685 54.0723C66.5824 53.4536 65.7876 53.1061 64.9588 53.1061ZM72.2504 42.1107C71.6979 42.1107 71.168 42.3424 70.7773 42.7548C70.3866 43.1672 70.1671 43.7266 70.1671 44.3098C70.1671 44.8931 70.3866 45.4524 70.7773 45.8648C71.168 46.2772 71.6979 46.5089 72.2504 46.5089C72.803 46.5089 73.3329 46.2772 73.7236 45.8648C74.1143 45.4524 74.3338 44.8931 74.3338 44.3098C74.3338 43.7266 74.1143 43.1672 73.7236 42.7548C73.3329 42.3424 72.803 42.1107 72.2504 42.1107Z" fill="black"/>
</svg>
