<svg width="133" height="133" viewBox="0 0 133 133" fill="none" xmlns="http://www.w3.org/2000/svg">
<circle cx="66.5" cy="66.5" r="66.5" fill="#F5F5F5"/>
<path d="M54.86 90.3173C54.2867 90.3173 53.7733 90.4307 53.32 90.6573C52.88 90.884 52.5067 91.2107 52.2 91.6373C51.8933 92.0507 51.66 92.5573 51.5 93.1573C51.3533 93.7573 51.28 94.4307 51.28 95.1773C51.28 96.1907 51.4 97.0573 51.64 97.7773C51.8933 98.484 52.2867 99.024 52.82 99.3973C53.3533 99.7707 54.0333 99.9573 54.86 99.9573C55.4467 99.9573 56.0267 99.8907 56.6 99.7573C57.1867 99.624 57.82 99.4373 58.5 99.1973V101.737C57.8733 101.991 57.2533 102.177 56.64 102.297C56.0267 102.417 55.34 102.477 54.58 102.477C53.1133 102.477 51.9 102.177 50.94 101.577C49.9933 100.964 49.2933 100.111 48.84 99.0173C48.3867 97.9107 48.16 96.624 48.16 95.1573C48.16 94.0773 48.3067 93.0907 48.6 92.1973C48.8933 91.2907 49.32 90.5107 49.88 89.8573C50.4533 89.204 51.1533 88.6973 51.98 88.3373C52.82 87.9773 53.78 87.7973 54.86 87.7973C55.5667 87.7973 56.2733 87.8907 56.98 88.0773C57.7 88.2507 58.3867 88.4907 59.04 88.7973L58.06 91.2573C57.5267 91.004 56.9867 90.784 56.44 90.5973C55.9067 90.4107 55.38 90.3173 54.86 90.3173ZM70.2744 102.277L69.2344 98.8773H64.0344L62.9944 102.277H59.7344L64.7744 87.9373H68.4744L73.5344 102.277H70.2744ZM67.4744 93.0173C67.4077 92.7907 67.321 92.504 67.2144 92.1573C67.1077 91.8107 67.001 91.4573 66.8944 91.0973C66.7877 90.7373 66.701 90.424 66.6344 90.1573C66.5677 90.424 66.4744 90.7573 66.3544 91.1573C66.2477 91.544 66.141 91.9173 66.0344 92.2773C65.941 92.624 65.8677 92.8707 65.8144 93.0173L64.7944 96.3373H68.5144L67.4744 93.0173ZM79.4367 102.277H76.4167V90.5173H72.5367V87.9973H83.3167V90.5173H79.4367V102.277Z" fill="black"/>
<path fill-rule="evenodd" clip-rule="evenodd" d="M65.3751 40.1273C61.6751 40.1273 61.3051 40.5416 59.3901 40.5416C57.7951 40.5416 53.0051 36.417 50.6126 36.417C48.2201 36.417 45.4251 37.9027 45.4251 42.1909V47.1388C45.4301 48.4371 45.8751 52.4166 47.6251 51.3531C45.5576 53.9339 45.3501 56.9449 45.3776 59.8582C44.8201 60.0271 44.2526 60.2198 43.7001 60.4177C41.9901 61.0352 40.1751 61.8216 39.3576 62.381C38.9399 62.6659 38.6465 63.1142 38.5419 63.6274C38.4374 64.1406 38.5302 64.6766 38.8001 65.1175C39.0699 65.5585 39.4947 65.8682 39.9809 65.9785C40.4671 66.0889 40.9749 65.9909 41.3926 65.706C41.7826 65.4395 43.1951 64.7824 44.9126 64.1623L45.4826 63.9644C45.5976 65.107 45.8851 66.1546 46.3126 67.1046L46.2526 67.1389C45.2276 67.7089 44.2776 68.366 43.6726 68.783L43.3901 68.9782C42.9724 69.2631 42.679 69.7114 42.5744 70.2246C42.4699 70.7378 42.5627 71.2738 42.8326 71.7148C43.1024 72.1557 43.5272 72.4654 44.0134 72.5758C44.4996 72.6861 45.0074 72.5881 45.4251 72.3032L45.7526 72.0763C46.3651 71.6541 47.1501 71.1131 48.0051 70.6381C48.2051 70.5255 48.3976 70.4235 48.5826 70.332C52.9076 74.6149 60.6751 76.0003 65.3751 76.0003C70.0751 76.0003 77.8426 74.6149 82.1676 70.332C82.3509 70.4235 82.5434 70.5255 82.7451 70.6381C83.6001 71.1131 84.3851 71.6541 84.9976 72.0763L85.3251 72.3032C85.7428 72.5881 86.2506 72.6861 86.7368 72.5758C87.223 72.4654 87.6477 72.1557 87.9176 71.7148C88.1875 71.2738 88.2803 70.7378 88.1758 70.2246C88.0712 69.7114 87.7778 69.2631 87.3601 68.9782L87.0776 68.783C86.2421 68.1931 85.3812 67.6445 84.4976 67.1389L84.4376 67.1046C84.8651 66.1546 85.1526 65.107 85.2676 63.9644L85.8376 64.1623C87.5551 64.7824 88.9676 65.4395 89.3601 65.706C89.7776 65.9749 90.2781 66.0609 90.7549 65.9457C91.2317 65.8306 91.6469 65.5233 91.9121 65.0895C92.1773 64.6557 92.2714 64.1297 92.1743 63.6237C92.0773 63.1177 91.7967 62.6718 91.3926 62.381C90.5751 61.8216 88.7601 61.0352 87.0526 60.4177C86.4966 60.2173 85.9364 60.0299 85.3726 59.8556C85.4026 56.9423 85.1926 53.9339 83.1226 51.3531C84.8726 52.4166 85.3226 48.4371 85.3251 47.1362V42.1909C85.3251 37.9027 82.5326 36.417 80.1376 36.417C77.7451 36.417 72.9551 40.5416 71.3626 40.5416C69.4451 40.5416 69.0751 40.1273 65.3751 40.1273ZM63.6876 64.3892C64.1926 64.2071 64.7901 64.1253 65.3751 64.1253C65.9601 64.1253 66.5576 64.2071 67.0651 64.3892C67.3151 64.4789 67.6151 64.6214 67.8851 64.8484C68.0701 64.9959 68.2213 65.1853 68.3278 65.4027C68.4342 65.6201 68.4931 65.8599 68.5001 66.1045C68.5001 66.7114 68.1526 67.1337 67.8851 67.3606C67.6176 67.5875 67.3126 67.73 67.0651 67.8198C66.5576 68.0019 65.9601 68.0837 65.3751 68.0837C64.7901 68.0837 64.1926 68.0019 63.6876 67.8198C63.3907 67.7171 63.1126 67.5619 62.8651 67.3606C62.6801 67.2131 62.5288 67.0237 62.4224 66.8063C62.316 66.5889 62.2571 66.3491 62.2501 66.1045C62.2501 65.4975 62.5976 65.0753 62.8651 64.8484C63.1326 64.6214 63.4401 64.4789 63.6876 64.3892ZM70.8001 56.2087C71.1426 55.607 71.8151 54.8892 72.8251 54.8892C73.8351 54.8892 74.5101 55.607 74.8501 56.2087C75.2051 56.8394 75.3751 57.5994 75.3751 58.3541C75.3751 59.1088 75.2051 59.8662 74.8501 60.4942C74.5101 61.0985 73.8351 61.8163 72.8251 61.8163C71.8151 61.8163 71.1426 61.0985 70.8001 60.4969C70.4477 59.8446 70.2665 59.1049 70.2751 58.3541C70.2751 57.5994 70.4451 56.8394 70.8001 56.2113M55.9001 56.2113C56.2426 55.6096 56.9151 54.8919 57.9251 54.8919C58.9351 54.8919 59.6101 55.6096 59.9501 56.2113C60.3051 56.842 60.4751 57.602 60.4751 58.3567C60.4751 59.1114 60.3051 59.8688 59.9501 60.4969C59.6101 61.1012 58.9351 61.8189 57.9251 61.8189C56.9151 61.8189 56.2426 61.1012 55.9001 60.4995C55.5477 59.8472 55.3665 59.1075 55.3751 58.3567C55.3751 57.602 55.5451 56.8394 55.9001 56.2113Z" fill="black"/>
</svg>
