<svg width="133" height="133" viewBox="0 0 133 133" fill="none" xmlns="http://www.w3.org/2000/svg">
<circle cx="66.5" cy="66.5" r="66.5" fill="#F5F5F5"/>
<path d="M56.64 94.9983C56.64 96.5983 56.3333 97.9383 55.72 99.0183C55.1067 100.098 54.2133 100.912 53.04 101.458C51.88 102.005 50.48 102.278 48.84 102.278H44.8V87.9983H49.28C50.7733 87.9983 52.0667 88.265 53.16 88.7983C54.2667 89.3317 55.12 90.1183 55.72 91.1583C56.3333 92.185 56.64 93.465 56.64 94.9983ZM53.5 95.0783C53.5 94.025 53.3467 93.1583 53.04 92.4783C52.7333 91.7983 52.2733 91.2983 51.66 90.9783C51.06 90.645 50.32 90.4783 49.44 90.4783H47.82V99.7783H49.12C50.6 99.7783 51.7 99.385 52.42 98.5983C53.14 97.8117 53.5 96.6383 53.5 95.0783ZM72.5647 95.1183C72.5647 96.225 72.4247 97.2317 72.1447 98.1383C71.878 99.0317 71.4647 99.805 70.9047 100.458C70.358 101.112 69.6514 101.612 68.7847 101.958C67.9314 102.305 66.9247 102.478 65.7647 102.478C64.6047 102.478 63.5914 102.305 62.7247 101.958C61.8714 101.598 61.1647 101.098 60.6047 100.458C60.058 99.805 59.6447 99.025 59.3647 98.1183C59.098 97.2117 58.9647 96.205 58.9647 95.0983C58.9647 93.6183 59.2047 92.3317 59.6847 91.2383C60.178 90.145 60.9247 89.2983 61.9247 88.6983C62.938 88.085 64.2247 87.7783 65.7847 87.7783C67.3314 87.7783 68.6047 88.085 69.6047 88.6983C70.6047 89.2983 71.3447 90.1517 71.8247 91.2583C72.318 92.3517 72.5647 93.6383 72.5647 95.1183ZM62.1447 95.1183C62.1447 96.1183 62.2714 96.9783 62.5247 97.6983C62.778 98.4183 63.1714 98.9717 63.7047 99.3583C64.238 99.745 64.9247 99.9383 65.7647 99.9383C66.6314 99.9383 67.3247 99.745 67.8447 99.3583C68.378 98.9717 68.7647 98.4183 69.0047 97.6983C69.258 96.9783 69.3847 96.1183 69.3847 95.1183C69.3847 93.6117 69.1047 92.4317 68.5447 91.5783C67.9847 90.725 67.0647 90.2983 65.7847 90.2983C64.9314 90.2983 64.238 90.4917 63.7047 90.8783C63.1714 91.265 62.778 91.8183 62.5247 92.5383C62.2714 93.2583 62.1447 94.1183 62.1447 95.1183ZM80.9427 94.2583H86.6027V101.658C85.856 101.912 85.076 102.112 84.2627 102.258C83.4627 102.405 82.5493 102.478 81.5227 102.478C80.1093 102.478 78.9027 102.198 77.9027 101.638C76.916 101.078 76.1627 100.252 75.6427 99.1583C75.136 98.065 74.8827 96.7183 74.8827 95.1183C74.8827 93.625 75.1693 92.3317 75.7427 91.2383C76.3293 90.145 77.176 89.2983 78.2827 88.6983C79.3893 88.0983 80.7427 87.7983 82.3427 87.7983C83.1027 87.7983 83.8493 87.8783 84.5827 88.0383C85.316 88.1983 85.9827 88.4117 86.5827 88.6783L85.5827 91.0983C85.1427 90.8717 84.6427 90.685 84.0827 90.5383C83.5227 90.3917 82.936 90.3183 82.3227 90.3183C81.4427 90.3183 80.676 90.5183 80.0227 90.9183C79.3827 91.3183 78.8827 91.885 78.5227 92.6183C78.176 93.3383 78.0027 94.1917 78.0027 95.1783C78.0027 96.1117 78.1293 96.9383 78.3827 97.6583C78.636 98.3783 79.036 98.945 79.5827 99.3583C80.1293 99.7583 80.8427 99.9583 81.7227 99.9583C82.016 99.9583 82.2693 99.9517 82.4827 99.9383C82.7093 99.9117 82.916 99.885 83.1027 99.8583C83.2893 99.8183 83.4693 99.785 83.6427 99.7583V96.7783H80.9427V94.2583Z" fill="black"/>
<path d="M81 33.7773C76.725 33.7773 74.125 34.6482 72.625 35.3871C70.7 34.3843 68.5 33.7773 66 33.7773C63.5 33.7773 61.3 34.3843 59.375 35.3871C57.875 34.6482 55.275 33.7773 51 33.7773C43.5 33.7773 38.5 54.8885 38.5 60.1662C38.5 62.3565 41.8 64.3621 46.35 65.1801C47.95 71.0912 55.5 75.6037 64.75 75.9996V64.7051C63.275 63.7287 61 61.9607 61 60.1662C61 57.5273 66 57.5273 66 57.5273C66 57.5273 71 57.5273 71 60.1662C71 61.9607 68.725 63.7287 67.25 64.7051V75.9996C76.5 75.6037 84.05 71.0912 85.65 65.1801C90.2 64.3621 93.5 62.3565 93.5 60.1662C93.5 54.8885 88.5 33.7773 81 33.7773ZM46.375 59.8232C45.125 59.5065 44.15 59.1371 43.5 58.8468C44.125 51.5371 49 40.1107 51.125 39.0551C52.475 39.0551 53.5 39.2135 54.425 39.3454C49.175 45.4412 47.1 54.994 46.375 59.8232ZM58.5 54.8885C57.837 54.8885 57.2011 54.6104 56.7322 54.1155C56.2634 53.6207 56 52.9494 56 52.2496C56 50.8246 57.125 49.6107 58.5 49.6107C59.163 49.6107 59.7989 49.8887 60.2678 50.3836C60.7366 50.8785 61 51.5497 61 52.2496C61 53.7273 59.875 54.8885 58.5 54.8885ZM73.5 54.8885C72.837 54.8885 72.2011 54.6104 71.7322 54.1155C71.2634 53.6207 71 52.9494 71 52.2496C71 50.8246 72.125 49.6107 73.5 49.6107C74.163 49.6107 74.7989 49.8887 75.2678 50.3836C75.7366 50.8785 76 51.5497 76 52.2496C76 53.7273 74.875 54.8885 73.5 54.8885ZM85.625 59.8232C84.9 54.994 82.825 45.4412 77.575 39.3454C78.5 39.2135 79.525 39.0551 80.875 39.0551C83 40.1107 87.875 51.5371 88.5 58.8468C87.875 59.1371 86.9 59.5065 85.625 59.8232Z" fill="black"/>
</svg>
