<svg width="133" height="133" viewBox="0 0 133 133" fill="none" xmlns="http://www.w3.org/2000/svg">
<circle cx="66.5" cy="66.5" r="66.5" fill="#F5F5F5"/>
<path d="M49.78 102.277H46.8V87.9973H54.98V90.4773H49.78V94.1573H54.62V96.6373H49.78V102.277ZM63.1166 102.277H56.6166V100.557L58.3566 99.7573V90.5173L56.6166 89.7173V87.9973H63.1166V89.7173L61.3766 90.5173V99.7573L63.1166 100.557V102.277ZM73.97 98.3173C73.97 99.1573 73.7633 99.8907 73.35 100.517C72.9367 101.144 72.3367 101.631 71.55 101.977C70.7767 102.311 69.83 102.477 68.71 102.477C68.2167 102.477 67.73 102.444 67.25 102.377C66.7833 102.311 66.33 102.217 65.89 102.097C65.4633 101.964 65.0567 101.804 64.67 101.617V98.7973C65.35 99.0907 66.05 99.364 66.77 99.6173C67.5033 99.8573 68.23 99.9773 68.95 99.9773C69.4433 99.9773 69.8367 99.9107 70.13 99.7773C70.4367 99.644 70.6567 99.464 70.79 99.2373C70.9367 99.0107 71.01 98.7507 71.01 98.4573C71.01 98.0973 70.8833 97.7907 70.63 97.5373C70.39 97.284 70.0633 97.0507 69.65 96.8373C69.2367 96.6107 68.7633 96.3707 68.23 96.1173C67.8967 95.9573 67.5367 95.7707 67.15 95.5573C66.7633 95.3307 66.39 95.0573 66.03 94.7373C65.6833 94.404 65.3967 94.004 65.17 93.5373C64.9433 93.0707 64.83 92.5107 64.83 91.8573C64.83 91.004 65.0233 90.2773 65.41 89.6773C65.81 89.064 66.37 88.5973 67.09 88.2773C67.8233 87.9573 68.6833 87.7973 69.67 87.7973C70.4167 87.7973 71.1233 87.884 71.79 88.0573C72.47 88.2307 73.1767 88.4773 73.91 88.7973L72.93 91.1573C72.2767 90.8907 71.69 90.684 71.17 90.5373C70.65 90.3907 70.1167 90.3173 69.57 90.3173C69.1967 90.3173 68.8767 90.3773 68.61 90.4973C68.3433 90.6173 68.1367 90.784 67.99 90.9973C67.8567 91.2107 67.79 91.464 67.79 91.7573C67.79 92.0907 67.89 92.3773 68.09 92.6173C68.29 92.844 68.59 93.064 68.99 93.2773C69.39 93.4907 69.89 93.744 70.49 94.0373C71.2233 94.384 71.8433 94.744 72.35 95.1173C72.87 95.4907 73.27 95.9307 73.55 96.4373C73.83 96.944 73.97 97.5707 73.97 98.3173ZM88.2656 102.277H85.2456V96.1173H79.5856V102.277H76.5656V87.9973H79.5856V93.5973H85.2456V87.9973H88.2656V102.277Z" fill="black"/>
<path d="M96.0001 54.8895C96.0001 52.8435 94.3278 49.1054 90.6552 45.7358C88.5589 43.8324 86.1698 42.3213 83.5911 41.2679C83.5053 41.234 83.4107 41.235 83.3256 41.2707C83.2405 41.3063 83.171 41.3741 83.1305 41.4608C83.113 41.4967 83.0954 41.5313 83.0755 41.5672L81.9516 43.534C80.0564 46.9884 79.0591 50.9099 79.0605 54.9018C79.062 58.8936 80.0621 62.8143 81.9598 66.2672L81.9868 66.3154L83.011 68.2946C83.0654 68.3997 83.154 68.4805 83.2604 68.5219C83.3669 68.5633 83.484 68.5625 83.5899 68.5197C92.2067 64.961 96.0001 58.0425 96.0001 54.8895ZM84.9938 54.8722C84.6055 54.9258 84.211 54.8497 83.8658 54.6546C83.5205 54.4595 83.2418 54.1551 83.0687 53.7843C82.8956 53.4135 82.8369 52.9947 82.9008 52.5869C82.9647 52.179 83.1479 51.8025 83.4249 51.5102C83.7018 51.2179 84.0585 51.0245 84.4449 50.957C84.8312 50.8896 85.2279 50.9516 85.5793 51.1343C85.9306 51.3169 86.2189 51.6112 86.4037 51.9756C86.5886 52.3401 86.6606 52.7565 86.6098 53.1664C86.5563 53.5989 86.3688 54.0007 86.0765 54.3092C85.7843 54.6177 85.4036 54.8156 84.9938 54.8722Z" fill="black"/>
<path d="M75.311 54.8898C75.3094 50.1972 76.4852 45.5878 78.7188 41.5305L78.7329 41.5045L79.2743 40.5557C79.3134 40.4881 79.3366 40.4116 79.3419 40.3326C79.3471 40.2536 79.3344 40.1744 79.3046 40.1016C79.2749 40.0289 79.229 39.9648 79.1709 39.9147C79.1128 39.8645 79.0442 39.8298 78.9707 39.8135C77.4537 39.4785 75.9164 39.2557 74.37 39.1468C74.1876 39.1344 74.0128 39.0655 73.8672 38.9489C71.6079 37.1355 67.129 33.9639 62.5633 33.1487C62.2513 33.0941 61.9313 33.1237 61.6331 33.2348C61.3349 33.3458 61.0681 33.5347 60.8576 33.7838C60.6471 34.0329 60.4997 34.3342 60.4291 34.6596C60.3585 34.985 60.3671 35.3239 60.454 35.6449L61.6985 40.2428C61.7308 40.3619 61.7197 40.4896 61.6672 40.6004C61.6146 40.7113 61.5246 40.7973 61.4149 40.8415C57.0965 42.5349 53.377 45.6348 50.6641 47.9974C50.4981 48.1408 50.2905 48.2198 50.0759 48.2212C49.8613 48.2225 49.6528 48.1462 49.4852 48.0048C49.1165 47.6956 48.7379 47.3909 48.3497 47.0907C43.7043 43.5096 38.2469 43.0383 38.0172 43.021C37.7256 42.9978 37.4329 43.0468 37.1624 43.1643C36.892 43.2818 36.6513 43.4644 36.4597 43.6976C36.268 43.9308 36.1307 44.2081 36.0587 44.5073C35.9867 44.8065 35.982 45.1193 36.045 45.4208C36.0942 45.6595 37.1219 50.454 39.7598 54.2788C39.8786 54.4502 39.9426 54.6571 39.9426 54.8694C39.9426 55.0818 39.8786 55.2887 39.7598 55.4601C37.1219 59.2836 36.0942 64.0794 36.045 64.3181C35.982 64.6196 35.9867 64.9324 36.0587 65.2316C36.1307 65.5308 36.268 65.8081 36.4597 66.0412C36.6513 66.2744 36.892 66.4571 37.1624 66.5745C37.4329 66.692 37.7256 66.7411 38.0172 66.7178C38.2516 66.7005 43.7043 66.223 48.3438 62.6506C48.7227 62.3571 49.0926 62.0594 49.4536 61.7575C49.6213 61.6164 49.8299 61.5402 50.0445 61.5418C50.259 61.5434 50.4666 61.6226 50.6325 61.7662C53.3571 64.14 57.0836 67.2435 61.4137 68.9407C61.5232 68.9848 61.613 69.0707 61.6655 69.1812C61.718 69.2918 61.7293 69.4192 61.6973 69.5381L60.4481 74.1372C60.3612 74.4582 60.3527 74.7972 60.4232 75.1226C60.4938 75.448 60.6412 75.7492 60.8517 75.9983C61.0622 76.2475 61.329 76.4363 61.6272 76.5474C61.9255 76.6584 62.2455 76.688 62.5575 76.6335C64.5684 76.2747 68.6372 75.0427 73.8133 70.8407C73.9612 70.7216 74.1388 70.6507 74.3243 70.6366C75.8688 70.5299 77.4044 70.3109 78.9204 69.981C78.9919 69.9651 79.059 69.9318 79.1161 69.8837C79.1733 69.8357 79.2191 69.7741 79.2497 69.704C79.2803 69.634 79.295 69.5573 79.2926 69.4802C79.2901 69.403 79.2706 69.3276 79.2356 69.2598L78.7071 68.2344C76.4799 64.1802 75.3083 59.5763 75.311 54.8898Z" fill="black"/>
</svg>
