<svg width="138" height="138" viewBox="0 0 138 138" fill="none" xmlns="http://www.w3.org/2000/svg">
<mask id="path-1-outside-1_181_822" maskUnits="userSpaceOnUse" x="13" y="13" width="112" height="112" fill="black">
<rect fill="white" x="13" y="13" width="112" height="112"/>
<path fill-rule="evenodd" clip-rule="evenodd" d="M118.209 54.4805L70.987 17.6915C69.8065 16.7695 68.2068 16.7695 67.0263 17.6915L18.3594 55.6457C15.7759 57.6613 17.119 62 20.3355 62H28V113C28 117.418 31.5817 121 36 121H102C106.418 121 110 117.418 110 113V62H117.661C120.877 62 122.229 57.6613 119.637 55.6457L118.209 54.4805Z"/>
</mask>
<path fill-rule="evenodd" clip-rule="evenodd" d="M118.209 54.4805L70.987 17.6915C69.8065 16.7695 68.2068 16.7695 67.0263 17.6915L18.3594 55.6457C15.7759 57.6613 17.119 62 20.3355 62H28V113C28 117.418 31.5817 121 36 121H102C106.418 121 110 117.418 110 113V62H117.661C120.877 62 122.229 57.6613 119.637 55.6457L118.209 54.4805Z" fill="#D5F4FB"/>
<path d="M70.987 17.6915L68.525 20.844L68.5287 20.8469L70.987 17.6915ZM118.209 54.4805L120.738 51.3813L120.703 51.3528L120.667 51.325L118.209 54.4805ZM67.0263 17.6915L69.4862 20.8457L69.4883 20.844L67.0263 17.6915ZM18.3594 55.6457L15.8995 52.4915L15.8989 52.492L18.3594 55.6457ZM28 62H32V58H28V62ZM110 62V58H106V62H110ZM119.637 55.6457L117.108 58.7448L117.144 58.7745L117.181 58.8033L119.637 55.6457ZM68.5287 20.8469L115.751 57.6359L120.667 51.325L73.4453 14.536L68.5287 20.8469ZM69.4883 20.844C69.3769 20.931 69.2058 21 69.0067 21C68.8076 21 68.6364 20.931 68.525 20.844L73.4491 14.539C70.8217 12.487 67.1916 12.487 64.5642 14.539L69.4883 20.844ZM20.8193 58.7999L69.4862 20.8457L64.5664 14.5373L15.8995 52.4915L20.8193 58.7999ZM20.3355 58C20.3892 58 20.4765 58.0101 20.5795 58.0473C20.6805 58.0838 20.7666 58.1354 20.8331 58.1896C20.959 58.2922 20.9881 58.3783 20.9927 58.3929C20.9976 58.4087 21.0092 58.4524 20.9866 58.5356C20.9565 58.6467 20.8837 58.7496 20.82 58.7994L15.8989 52.492C13.1028 54.6736 12.5211 58.0868 13.3523 60.7645C14.1878 63.456 16.6626 66 20.3355 66V58ZM28 58H20.3355V66H28V58ZM32 113V62H24V113H32ZM36 117C33.7909 117 32 115.209 32 113H24C24 119.627 29.3726 125 36 125V117ZM102 117H36V125H102V117ZM106 113C106 115.209 104.209 117 102 117V125C108.627 125 114 119.627 114 113H106ZM106 62V113H114V62H106ZM117.661 58H110V66H117.661V58ZM117.181 58.8033C117.119 58.7546 117.045 58.6514 117.014 58.5377C116.991 58.4521 117.002 58.4066 117.008 58.3901C117.012 58.3748 117.041 58.2896 117.166 58.1881C117.232 58.1344 117.318 58.0832 117.418 58.047C117.52 58.0101 117.607 58 117.661 58V66C121.331 66 123.809 63.4592 124.646 60.7673C125.481 58.0861 124.897 54.669 122.092 52.4881L117.181 58.8033ZM115.68 57.5796L117.108 58.7448L122.166 52.5465L120.738 51.3813L115.68 57.5796Z" fill="#001A80" mask="url(#path-1-outside-1_181_822)"/>
<path d="M87 123H89V121V95C89 83.9543 80.0457 75 69 75C57.9543 75 49 83.9543 49 95V121V123H51H87Z" fill="white" fill-opacity="0.5" stroke="#001A80" stroke-width="4"/>
<path d="M86.4684 57.4305C87.6386 56.3248 88.2622 54.6787 87.8949 52.8996C87.5019 50.9874 85.8704 49.4328 83.8973 49.0836C80.6941 48.5183 77.9095 50.896 77.9095 53.9138H61.0906C61.0906 50.9043 58.3059 48.5183 55.1027 49.0836C53.1296 49.4328 51.4981 50.9791 51.1051 52.8996C50.7378 54.6787 51.3614 56.3248 52.5316 57.4305C52.8648 57.7464 52.8648 58.2619 52.5316 58.5695C51.3614 59.6752 50.7378 61.3213 51.1051 63.1004C51.4981 65.0126 53.1296 66.5672 55.1027 66.9164C58.3059 67.4817 61.0906 65.104 61.0906 62.0862H77.9095C77.9095 65.0957 80.6941 67.4817 83.8973 66.9164C85.8704 66.5672 87.5019 65.0209 87.8949 63.1004C88.2622 61.3213 87.6386 59.6752 86.4684 58.5695C86.1352 58.2536 86.1352 57.7381 86.4684 57.4305Z" fill="#001A80"/>
</svg>
